<?xml version="1.0"?>
<svg xmlns="http://www.w3.org/2000/svg" width="145" height="96" viewBox="0 0 145 96" fill="#ffffff">
<path fill-rule="evenodd" clip-rule="evenodd" d="M6.49254 50.1537V34.1045H12.4205L22.4573 50.1537H30.3299L19.1953 33.0074C20.4081 32.7148 22.1645 31.4192 24.4646 29.1205C27.7893 25.7769 29.4517 21.7437 29.4517 17.0209C29.4517 12.3399 27.7893 8.3276 24.4646 4.98402C21.6836 2.20467 18.2753 0.543331 14.2397 0H0V50.1537H6.49254ZM12.4205 27.5845H6.49254V6.51998H12.4205C15.3061 6.51998 17.7787 7.54395 19.8383 9.59189C21.8979 11.6398 22.9278 14.1162 22.9278 17.0209C22.9278 19.9465 21.8979 22.4385 19.8383 24.4969C17.7787 26.5553 15.3061 27.5845 12.4205 27.5845ZM64.204 45.7652C60.712 49.2551 56.4987 51 51.5639 51C46.6501 51 42.4472 49.2551 38.9552 45.7652C35.4633 42.2754 33.7173 38.0645 33.7173 33.1328C33.7173 28.201 35.4633 23.9902 38.9552 20.5003C42.4472 17.0104 46.6501 15.2655 51.5639 15.2655C55.7877 15.2655 59.4888 16.5403 62.6671 19.0897C63.1898 19.5286 63.7021 19.9988 64.204 20.5003C64.4131 20.7093 65.009 21.3675 65.9918 22.4751L62.7298 25.7664L45.6359 42.85C46.7233 43.8113 48.6993 44.2919 51.5639 44.2919C54.6586 44.2919 57.3037 43.2053 59.4992 41.032C59.7711 40.7394 60.3252 40.0916 61.1616 39.0885L67.6541 41.4081C66.065 43.6023 64.9149 45.0547 64.204 45.7652ZM41.2449 38.0541C40.6803 37.3018 40.398 35.6613 40.398 33.1328C40.398 30.0399 41.4906 27.4017 43.6756 25.2179C45.8607 23.0341 48.4902 21.9422 51.5639 21.9422C54.1149 21.9422 55.7564 22.2243 56.4882 22.7886L41.2449 38.0541ZM105.512 17.8986L90.08 50.1537H86.8181L71.4179 17.8986H78.7573L88.4491 38.8377L98.1722 17.8986H105.512ZM127.153 51C132.088 51 136.296 49.2551 139.778 45.7652C143.259 42.2754 145 38.0645 145 33.1328C145 28.201 143.259 23.9902 139.778 20.5003C136.296 17.0104 132.088 15.2655 127.153 15.2655C122.24 15.2655 118.037 17.0104 114.545 20.5003C111.053 23.9902 109.307 28.201 109.307 33.1328C109.307 38.0645 111.053 42.2754 114.545 45.7652C118.037 49.2551 122.24 51 127.153 51ZM119.234 41.032C121.419 43.2053 124.059 44.2919 127.153 44.2919C130.248 44.2919 132.888 43.2053 135.073 41.032C137.258 38.8586 138.351 36.2256 138.351 33.1328C138.351 30.0608 137.258 27.4278 135.073 25.2336C132.888 23.0393 130.248 21.9422 127.153 21.9422C124.059 21.9422 121.419 23.0393 119.234 25.2336C117.049 27.4278 115.956 30.0608 115.956 33.1328C115.956 36.2256 117.049 38.8586 119.234 41.032Z" fill="#ffffff"/>
<path fill-rule="evenodd" clip-rule="evenodd" d="M48.3241 91.606C45.3527 94.5353 41.7666 96 37.5658 96C33.3651 96 29.779 94.5353 26.8076 91.606C23.8362 88.6766 22.3505 85.1413 22.3505 81C22.3505 76.8587 23.8362 73.3234 26.8076 70.394C29.779 67.4647 33.3651 66 37.5658 66C41.7666 66 45.3527 67.4647 48.3241 70.394C51.2955 73.3234 52.7812 76.8587 52.7812 81C52.7812 85.1413 51.2955 88.6766 48.3241 91.606ZM1.66794 81.8587V95.6529H0V66.4202H12.9729V68.0646H1.66794V80.2144H12.9729V81.8587H1.66794ZM37.5658 94.3374C33.8346 94.3374 30.65 93.0341 28.0122 90.4275C25.3744 87.8209 24.0555 84.6784 24.0555 81C24.0555 77.3216 25.3744 74.1821 28.0122 71.5816C30.65 68.9811 33.8346 67.6809 37.5658 67.6809C41.2971 67.6809 44.4816 68.9811 47.1194 71.5816C49.7573 74.1821 51.0762 77.3216 51.0762 81C51.0762 84.6784 49.7573 87.8209 47.1194 90.4275C44.4816 93.0341 41.2971 94.3374 37.5658 94.3374ZM88.1323 91.606C85.1609 94.5353 81.5749 96 77.3741 96C73.1734 96 69.5873 94.5353 66.6159 91.606C63.6444 88.6766 62.1587 85.1413 62.1587 81C62.1587 76.8587 63.6444 73.3234 66.6159 70.394C69.5873 67.4647 73.1734 66 77.3741 66C81.5749 66 85.1609 67.4647 88.1323 70.394C91.1038 73.3234 92.5895 76.8587 92.5895 81C92.5895 85.1413 91.1038 88.6766 88.1323 91.606ZM77.3741 94.3374C73.6429 94.3374 70.4583 93.0341 67.8205 90.4275C65.1827 87.8209 63.8638 84.6784 63.8638 81C63.8638 77.3216 65.1827 74.1821 67.8205 71.5816C70.4583 68.9811 73.6429 67.6809 77.3741 67.6809C81.1054 67.6809 84.2899 68.9811 86.9277 71.5816C89.5656 74.1821 90.8845 77.3216 90.8845 81C90.8845 84.6784 89.5656 87.8209 86.9277 90.4275C84.2899 93.0341 81.1054 94.3374 77.3741 94.3374ZM104.098 95.6163V95.6529H102.43V66.4202H104.098V66.4568H104.228C109.108 66.4568 112.889 67.7844 115.57 70.4397C118.535 73.3752 120.018 76.9074 120.018 81.0365C120.018 85.1778 118.535 88.7101 115.57 91.6334C112.889 94.2887 109.108 95.6163 104.228 95.6163H104.098ZM104.228 93.9537H104.098V68.1376H104.228C108.626 68.1376 112.006 69.3009 114.365 71.6273C116.997 74.2339 118.313 77.3703 118.313 81.0365C118.313 84.715 116.997 87.8514 114.365 90.4458C112.006 92.7844 108.626 93.9537 104.228 93.9537ZM142.424 93.4604C140.707 95.1535 138.637 96 136.215 96C133.794 96 131.724 95.1474 130.007 93.4421C128.636 92.0901 127.814 90.5189 127.542 88.7284L129.117 88.162C129.29 89.7454 129.976 91.1279 131.175 92.3094C132.571 93.6857 134.251 94.3739 136.215 94.3739C138.192 94.3739 139.879 93.6857 141.275 92.3094C142.671 90.933 143.369 89.2704 143.369 87.3216C143.369 85.3849 142.671 83.7284 141.275 82.352C140.052 81.1462 138.551 80.1839 136.771 79.4653C134.659 78.771 132.991 77.8209 131.768 76.6151C130.544 75.4093 129.933 73.9476 129.933 72.2302C129.933 70.5493 130.544 69.1029 131.768 67.891C132.991 66.679 134.473 66.0731 136.215 66.0731C137.945 66.0731 139.428 66.676 140.663 67.8819C141.343 68.5274 141.812 69.2521 142.072 70.056L140.571 70.6407C140.348 70.0438 139.984 69.4957 139.477 68.9963C138.575 68.1194 137.488 67.6809 136.215 67.6809C134.943 67.6809 133.856 68.1224 132.954 69.0055C132.052 69.8886 131.601 70.9635 131.601 72.2302C131.601 73.4848 132.052 74.5566 132.954 75.4458C133.794 76.2619 134.955 77.011 136.438 77.6931C138.81 78.4482 140.805 79.6236 142.424 81.2192C144.141 82.9001 145 84.9342 145 87.3216C145 89.7211 144.141 91.7674 142.424 93.4604Z" fill="#ffffff"/>
</svg>
