<svg width="297" height="115" viewBox="0 0 297 115" fill="none" xmlns="http://www.w3.org/2000/svg">
<path fill-rule="evenodd" clip-rule="evenodd" d="M78.4124 114.8C82.7462 114.8 84.9131 113.56 84.9131 111.081V38.9496C84.9131 36.4701 82.7462 35.2303 78.4124 35.2303H73.6225C69.2127 35.2303 67.0078 36.4701 67.0078 38.9496V111.081C67.0078 113.56 69.2127 114.8 73.6225 114.8H78.4124ZM11.7078 114.687C16.1176 114.687 18.3225 113.485 18.3225 111.081V83.8062H35.0873C36.2277 83.8062 37.0641 83.3554 37.5963 82.4538C38.1285 81.5521 38.3946 80.1245 38.3946 78.171V74.6771C38.3946 72.7236 38.1285 71.296 37.5963 70.3943C37.0641 69.4927 36.2277 69.0419 35.0873 69.0419H18.3225V50.3329H36.1137C37.2542 50.3329 38.0905 49.882 38.6227 48.9804C39.1549 48.0788 39.421 46.6512 39.421 44.6976V41.2038C39.421 39.2502 39.1549 37.8226 38.6227 36.921C38.0905 36.0193 37.2542 35.5685 36.1137 35.5685H4.75096C3.30638 35.5685 2.24194 35.9254 1.55767 36.6392C0.873389 37.353 0.53125 38.4989 0.53125 40.0767V111.081C0.53125 113.485 2.73614 114.687 7.14593 114.687H11.7078ZM153.669 113.109C153.137 114.011 152.262 114.462 151.046 114.462H120.481C119.037 114.462 117.972 114.105 117.288 113.391C116.604 112.677 116.262 111.532 116.262 109.954V38.9496C116.262 36.5452 118.467 35.343 122.876 35.343H127.438C131.848 35.343 134.053 36.5452 134.053 38.9496V99.6975H151.046C152.262 99.6975 153.137 100.148 153.669 101.05C154.201 101.952 154.467 103.379 154.467 105.333V108.827C154.467 110.78 154.201 112.208 153.669 113.109ZM218.548 114.462C219.688 114.462 220.506 114.011 221 113.109C221.494 112.208 221.741 110.78 221.741 108.827V105.333C221.741 103.379 221.494 101.952 221 101.05C220.506 100.148 219.688 99.6975 218.548 99.6975H198.362V81.4394H216.153C217.293 81.4394 218.13 80.9885 218.662 80.0869C219.194 79.1852 219.46 77.7577 219.46 75.8041V72.3103C219.46 70.3567 219.194 68.9291 218.662 68.0275C218.13 67.1258 217.293 66.675 216.153 66.675H198.362V50.3328H218.434C219.574 50.3328 220.41 49.882 220.943 48.9804C221.475 48.0787 221.741 46.6511 221.741 44.6976V41.2037C221.741 39.2502 221.475 37.8226 220.943 36.9209C220.41 36.0193 219.574 35.5685 218.434 35.5685H184.79C183.345 35.5685 182.281 35.9254 181.597 36.6392C180.912 37.353 180.57 38.4988 180.57 40.0767V109.954C180.57 111.532 180.912 112.677 181.597 113.391C182.281 114.105 183.345 114.462 184.79 114.462H218.548ZM279.665 111.081C279.665 113.485 277.46 114.687 273.05 114.687H268.374C263.964 114.687 261.759 113.485 261.759 111.081V50.3328H249.1C247.96 50.3328 247.124 49.882 246.591 48.9804C246.059 48.0787 245.793 46.6511 245.793 44.6976V41.2037C245.793 39.2502 246.059 37.8226 246.591 36.9209C247.124 36.0193 247.96 35.5685 249.1 35.5685H292.438C293.654 35.5685 294.529 36.0193 295.061 36.9209C295.593 37.8226 295.859 39.2502 295.859 41.2037V44.6976C295.859 46.6511 295.593 48.0787 295.061 48.9804C294.529 49.882 293.654 50.3328 292.438 50.3328H279.665V111.081Z" fill="white"/>
<rect x="0.53125" y="7.1665" width="103.13" height="1.12461" fill="white"/>
<rect x="193.336" y="7.1665" width="103.13" height="1.12461" fill="white"/>
<path fill-rule="evenodd" clip-rule="evenodd" d="M144.644 17.1346C145.245 17.1346 145.545 16.9561 145.545 16.5992V9.27314H151.956V16.5992C151.956 16.9561 152.265 17.1346 152.883 17.1346H153.224C153.841 17.1346 154.15 16.9561 154.15 16.5992V0.535457C154.15 0.178486 153.841 0 153.224 0H152.883C152.265 0 151.956 0.178486 151.956 0.535457V7.42338H145.545V0.535457C145.545 0.178486 145.245 0 144.644 0H144.278C143.66 0 143.352 0.178486 143.352 0.535457V16.5992C143.352 16.9561 143.66 17.1346 144.278 17.1346H144.644ZM132.335 17.1347C132.952 17.1347 133.261 16.9562 133.261 16.5992V1.89853H136.722C136.901 1.89853 137.027 1.84174 137.1 1.72815C137.173 1.61457 137.21 1.42797 137.21 1.16836V0.778935C137.21 0.51932 137.173 0.332721 137.1 0.21914C137.027 0.105558 136.901 0.0487671 136.722 0.0487671H127.557C127.248 0.0487671 127.094 0.292157 127.094 0.778935V1.16836C127.094 1.65514 127.248 1.89853 127.557 1.89853H131.067V16.5992C131.067 16.9562 131.376 17.1347 131.993 17.1347H132.335ZM169.782 16.9156C169.709 17.0292 169.591 17.086 169.429 17.086H162.408C162.181 17.086 162.014 17.0292 161.908 16.9156C161.803 16.802 161.75 16.6154 161.75 16.3558V0.778874C161.75 0.519259 161.803 0.33266 161.908 0.219079C162.014 0.105497 162.181 0.0487061 162.408 0.0487061H169.429C169.737 0.0487061 169.892 0.292095 169.892 0.778874V1.1683C169.892 1.65508 169.737 1.89847 169.429 1.89847H163.944V7.44774H168.868C169.177 7.44774 169.331 7.69113 169.331 8.17791V8.56734C169.331 9.05411 169.177 9.2975 168.868 9.2975H163.944V15.2362H169.429C169.591 15.2362 169.709 15.293 169.782 15.4066C169.855 15.5202 169.892 15.7068 169.892 15.9664V16.3558C169.892 16.6154 169.855 16.802 169.782 16.9156Z" fill="white"/>
</svg>
