<svg width="234" height="235" viewBox="0 0 234 235" fill="none" xmlns="http://www.w3.org/2000/svg">
<g id="Gastro Deal">
<g id="Oval" filter="url(#filter0_d_2953_470)">
<circle cx="117" cy="112" r="63" transform="rotate(90 117 112)" fill="white"/>
</g>
<g id="Oval_2" filter="url(#filter1_d_2953_470)">
<circle cx="117" cy="112" r="54" transform="rotate(90 117 112)" fill="#C8F3F4"/>
<circle cx="117" cy="112" r="54" transform="rotate(90 117 112)" stroke="#F9A259" stroke-width="0.9" stroke-dasharray="3.6 3.6"/>
</g>
<path id="Vegan Appetizers and" d="M81.8044 117.6C81.5404 117.6 81.2896 117.191 81.052 116.372C80.8144 115.528 80.6956 114.775 80.6956 114.115C80.6956 113.825 80.7352 113.627 80.8144 113.521L89.4472 100.968C90.0016 100.15 90.3976 99.4368 90.6352 98.8296C90.8728 98.196 90.9916 97.5888 90.9916 97.008C90.9916 96.084 90.7012 95.3976 90.1204 94.9488C89.566 94.4736 88.8136 94.236 87.8632 94.236C87.2032 94.236 86.5828 94.3548 86.002 94.5924C85.4476 94.8036 84.88 95.094 84.2992 95.4636C83.7976 95.7804 83.4544 95.9388 83.2696 95.9388C82.6888 95.9388 82.1608 95.622 81.6856 94.9884C81.2368 94.3548 81.0124 93.7608 81.0124 93.2064C81.0124 92.0976 81.8176 91.2132 83.428 90.5532C85.0384 89.8932 86.8204 89.5632 88.774 89.5632C91.3876 89.5632 93.394 90.2364 94.7932 91.5828C96.2188 92.9028 96.9316 94.6452 96.9316 96.81C96.9316 98.8692 96.232 100.889 94.8328 102.869L87.982 112.967H95.9416C96.364 112.967 96.6676 113.125 96.8524 113.442C97.0372 113.759 97.1296 114.26 97.1296 114.947V115.62C97.1296 116.306 97.0372 116.808 96.8524 117.125C96.6676 117.442 96.364 117.6 95.9416 117.6H81.8044ZM106.118 117.917C104.112 117.917 102.435 117.64 101.089 117.085C99.7689 116.531 99.1089 115.858 99.1089 115.066C99.1089 114.828 99.2277 114.458 99.4653 113.957C99.7029 113.429 99.9801 112.967 100.297 112.571C100.64 112.148 100.957 111.937 101.247 111.937C101.3 111.937 101.577 112.069 102.079 112.333C102.581 112.571 103.148 112.795 103.782 113.006C104.415 113.191 105.128 113.284 105.92 113.284C106.95 113.284 107.755 112.927 108.336 112.214C108.943 111.475 109.247 110.472 109.247 109.205C109.247 107.753 108.943 106.657 108.336 105.918C107.729 105.179 106.712 104.809 105.287 104.809H101.564C101.01 104.809 100.627 104.69 100.416 104.453C100.205 104.215 100.099 103.806 100.099 103.225L100.851 91.464C100.904 90.9096 101.049 90.5136 101.287 90.276C101.551 90.012 101.96 89.88 102.515 89.88H113.088C113.51 89.88 113.814 90.0384 113.999 90.3552C114.183 90.672 114.276 91.1736 114.276 91.86V92.9292C114.276 93.4836 114.183 93.8928 113.999 94.1568C113.814 94.3944 113.51 94.5132 113.088 94.5132H106.197L105.801 100.176H106.395C109.247 100.176 111.425 100.849 112.929 102.196C114.434 103.542 115.187 105.826 115.187 109.046C115.187 111.158 114.751 112.874 113.88 114.194C113.009 115.514 111.887 116.465 110.514 117.046C109.141 117.626 107.676 117.917 106.118 117.917ZM125.522 117.917C122.802 117.917 120.77 116.702 119.423 114.274C118.103 111.818 117.443 108.307 117.443 103.74C117.443 99.1728 118.103 95.6748 119.423 93.246C120.77 90.7908 122.802 89.5632 125.522 89.5632C128.241 89.5632 130.274 90.7908 131.62 93.246C132.966 95.7012 133.64 99.1992 133.64 103.74C133.64 108.281 132.966 111.779 131.62 114.234C130.274 116.689 128.241 117.917 125.522 117.917ZM125.522 113.284C126.023 113.284 126.419 113.033 126.71 112.531C127 112.03 127.211 111.092 127.343 109.72C127.502 108.347 127.581 106.354 127.581 103.74C127.581 101.126 127.502 99.1332 127.343 97.7604C127.211 96.3876 127 95.4504 126.71 94.9488C126.419 94.4472 126.023 94.1964 125.522 94.1964C125.02 94.1964 124.624 94.4472 124.334 94.9488C124.043 95.4504 123.819 96.3876 123.66 97.7604C123.528 99.1332 123.462 101.126 123.462 103.74C123.462 106.354 123.528 108.347 123.66 109.72C123.819 111.092 124.043 112.03 124.334 112.531C124.624 113.033 125.02 113.284 125.522 113.284ZM143.579 125.995C141.123 125.995 139.249 125.546 137.955 124.649C136.662 123.778 136.015 122.471 136.015 120.728C136.015 118.59 137.018 117.032 139.025 116.056V115.937C138.497 115.62 138.087 115.211 137.797 114.709C137.533 114.181 137.401 113.587 137.401 112.927C137.401 111.449 138.035 110.221 139.302 109.244C137.401 108.136 136.451 106.274 136.451 103.661C136.451 101.285 137.097 99.516 138.391 98.3544C139.711 97.1664 141.467 96.5724 143.658 96.5724C144.476 96.5724 145.334 96.678 146.232 96.8892H151.38C151.749 96.8892 152.013 97.0344 152.172 97.3248C152.357 97.6152 152.449 98.064 152.449 98.6712V99.3048C152.449 99.8856 152.37 100.321 152.211 100.612C152.079 100.876 151.855 101.008 151.538 101.008C151.063 101.008 150.614 100.955 150.192 100.849L150.113 101.008C150.324 101.324 150.482 101.734 150.588 102.235C150.72 102.71 150.786 103.225 150.786 103.78C150.786 105.812 150.192 107.383 149.004 108.492C147.842 109.574 146.285 110.142 144.331 110.195C143.011 110.221 142.351 110.736 142.351 111.739C142.351 112.346 142.602 112.769 143.103 113.006C143.605 113.244 144.437 113.482 145.598 113.719C146.285 113.851 146.747 113.944 146.984 113.996C148.489 114.34 149.677 114.92 150.548 115.739C151.446 116.531 151.895 117.745 151.895 119.382C151.895 121.441 151.155 123.052 149.677 124.213C148.199 125.401 146.166 125.995 143.579 125.995ZM143.579 106.354C144.265 106.354 144.806 106.142 145.202 105.72C145.625 105.298 145.836 104.532 145.836 103.423C145.836 102.314 145.625 101.549 145.202 101.126C144.806 100.678 144.265 100.453 143.579 100.453C142.1 100.453 141.361 101.443 141.361 103.423C141.361 105.377 142.1 106.354 143.579 106.354ZM144.093 121.798C145.07 121.798 145.796 121.613 146.271 121.243C146.773 120.9 147.024 120.398 147.024 119.738C147.024 119.237 146.852 118.841 146.509 118.55C146.166 118.286 145.717 118.088 145.163 117.956C144.635 117.824 143.75 117.666 142.509 117.481C142.061 117.745 141.704 118.075 141.44 118.471C141.176 118.894 141.044 119.342 141.044 119.818C141.044 120.478 141.308 120.966 141.836 121.283C142.391 121.626 143.143 121.798 144.093 121.798Z" fill="#1E5064"/>
<path id="Vegan Appetizers and_2" d="M88.9664 133.043C89.2094 133.043 89.3309 133.178 89.3309 133.448V137.309C89.3309 137.651 89.0834 137.898 88.5884 138.051C88.0934 138.204 87.5219 138.281 86.8739 138.281C84.5969 138.281 83.4584 136.706 83.4584 133.556C83.4584 131.9 83.7554 130.671 84.3494 129.87C84.9434 129.069 85.8254 128.669 86.9954 128.669C87.3284 128.669 87.6614 128.714 87.9944 128.804C88.3274 128.894 88.6019 129.006 88.8179 129.141C89.0429 129.267 89.1554 129.389 89.1554 129.506C89.1554 129.632 89.0969 129.794 88.9799 129.992C88.8629 130.19 88.7594 130.289 88.6694 130.289C88.6424 130.289 88.5479 130.239 88.3859 130.14C88.2239 130.032 88.0259 129.938 87.7919 129.857C87.5669 129.776 87.3059 129.735 87.0089 129.735C86.1989 129.735 85.6139 130.05 85.2539 130.68C84.8939 131.301 84.7139 132.219 84.7139 133.434C84.7139 134.577 84.8849 135.5 85.2269 136.202C85.5689 136.904 86.1314 137.255 86.9144 137.255C87.3914 137.255 87.7919 137.196 88.1159 137.079V134.069H86.9684C86.8784 134.069 86.8109 134.037 86.7659 133.974C86.7209 133.911 86.6984 133.808 86.6984 133.664V133.448C86.6984 133.304 86.7209 133.2 86.7659 133.137C86.8109 133.074 86.8784 133.043 86.9684 133.043H88.9664ZM90.9206 138.227C90.5876 138.227 90.4211 138.15 90.4211 137.997C90.4211 137.97 90.4301 137.912 90.4481 137.822L92.8916 128.979C92.9456 128.808 93.1256 128.723 93.4316 128.723H93.8636C94.1876 128.723 94.3676 128.808 94.4036 128.979L96.8471 137.822C96.8741 137.885 96.8876 137.943 96.8876 137.997C96.8876 138.069 96.8426 138.128 96.7526 138.173C96.6716 138.209 96.5501 138.227 96.3881 138.227H96.1586C95.8706 138.227 95.7086 138.155 95.6726 138.011L95.0921 135.797H92.1896L91.6226 138.011C91.5866 138.155 91.4246 138.227 91.1366 138.227H90.9206ZM94.7951 134.771L93.8366 131.072C93.8096 130.955 93.7601 130.68 93.6881 130.248H93.6206C93.6026 130.311 93.5846 130.415 93.5666 130.559L93.4586 131.072L92.5001 134.771H94.7951ZM99.7615 138.267C98.9245 138.267 98.218 138.06 97.642 137.646C97.588 137.61 97.5475 137.574 97.5205 137.538C97.5025 137.493 97.4935 137.426 97.4935 137.336C97.4935 137.174 97.5205 137.007 97.5745 136.836C97.6375 136.656 97.714 136.566 97.804 136.566C97.84 136.566 97.867 136.575 97.885 136.593C97.903 136.611 97.9165 136.62 97.9255 136.62C98.4205 137.007 99.046 137.201 99.802 137.201C100.261 137.201 100.635 137.066 100.923 136.796C101.22 136.517 101.368 136.143 101.368 135.675C101.368 135.252 101.251 134.924 101.017 134.69C100.783 134.447 100.437 134.208 99.9775 133.974C99.4645 133.722 99.055 133.493 98.749 133.286C98.452 133.079 98.2 132.813 97.993 132.489C97.795 132.156 97.696 131.742 97.696 131.247C97.696 130.428 97.9525 129.785 98.4655 129.317C98.9875 128.84 99.6625 128.601 100.491 128.601C101.13 128.601 101.679 128.736 102.138 129.006C102.201 129.042 102.232 129.096 102.232 129.168C102.232 129.285 102.187 129.452 102.097 129.668C102.016 129.884 101.935 129.992 101.854 129.992C101.827 129.992 101.769 129.969 101.679 129.924C101.337 129.753 100.918 129.668 100.423 129.668C99.991 129.668 99.6265 129.794 99.3295 130.046C99.0325 130.289 98.884 130.644 98.884 131.112C98.884 131.517 99.0055 131.846 99.2485 132.098C99.5005 132.341 99.9055 132.606 100.464 132.894C100.923 133.128 101.292 133.349 101.571 133.556C101.859 133.754 102.097 134.019 102.286 134.352C102.475 134.676 102.57 135.086 102.57 135.581C102.57 136.427 102.309 137.088 101.787 137.565C101.265 138.033 100.59 138.267 99.7615 138.267ZM105.938 138.227C105.596 138.227 105.425 138.128 105.425 137.93V129.776H103.481C103.31 129.776 103.225 129.641 103.225 129.371V129.155C103.225 128.885 103.31 128.75 103.481 128.75H108.557C108.656 128.75 108.724 128.781 108.76 128.844C108.805 128.907 108.827 129.011 108.827 129.155V129.371C108.827 129.515 108.805 129.618 108.76 129.681C108.724 129.744 108.656 129.776 108.557 129.776H106.64V137.93C106.64 138.128 106.469 138.227 106.127 138.227H105.938ZM110.637 138.227C110.295 138.227 110.124 138.128 110.124 137.93V129.155C110.124 129.011 110.151 128.907 110.205 128.844C110.268 128.781 110.363 128.75 110.489 128.75H112.487C113.378 128.75 114.039 128.939 114.471 129.317C114.903 129.695 115.119 130.302 115.119 131.139C115.119 131.697 115.007 132.17 114.782 132.557C114.566 132.935 114.264 133.223 113.877 133.421V133.475C114.057 133.565 114.215 133.74 114.35 134.001C114.485 134.262 114.638 134.649 114.809 135.162L115.659 137.822C115.686 137.903 115.7 137.966 115.7 138.011C115.7 138.155 115.524 138.227 115.173 138.227H114.944C114.818 138.227 114.705 138.209 114.606 138.173C114.516 138.128 114.462 138.074 114.444 138.011L113.634 135.365C113.472 134.852 113.288 134.505 113.081 134.325C112.883 134.136 112.586 134.042 112.19 134.042H111.339V137.93C111.339 138.128 111.168 138.227 110.826 138.227H110.637ZM112.689 133.016C113.013 133.016 113.288 132.854 113.513 132.53C113.747 132.197 113.864 131.805 113.864 131.355C113.864 130.824 113.751 130.428 113.526 130.167C113.31 129.906 113.004 129.776 112.608 129.776H111.326V133.016H112.689ZM119.911 138.281C118.813 138.281 117.976 137.88 117.4 137.079C116.824 136.278 116.536 135.068 116.536 133.448C116.536 130.262 117.661 128.669 119.911 128.669C122.17 128.669 123.3 130.262 123.3 133.448C123.3 135.068 123.012 136.278 122.436 137.079C121.86 137.88 121.018 138.281 119.911 138.281ZM119.925 137.255C121.347 137.255 122.058 135.986 122.058 133.448C122.058 130.946 121.347 129.695 119.925 129.695C119.214 129.695 118.678 130.001 118.318 130.613C117.967 131.216 117.792 132.161 117.792 133.448C117.792 135.986 118.503 137.255 119.925 137.255ZM127.219 138.2C127.093 138.2 126.999 138.168 126.936 138.105C126.882 138.042 126.855 137.939 126.855 137.795V129.155C126.855 129.011 126.882 128.907 126.936 128.844C126.999 128.781 127.093 128.75 127.219 128.75H129.487C131.746 128.75 132.876 130.325 132.876 133.475C132.876 136.625 131.746 138.2 129.487 138.2H127.219ZM129.46 137.174C130.135 137.174 130.666 136.881 131.053 136.296C131.44 135.702 131.634 134.762 131.634 133.475C131.634 132.197 131.44 131.261 131.053 130.667C130.666 130.073 130.135 129.776 129.46 129.776H128.083V137.174H129.46ZM134.972 138.2C134.846 138.2 134.751 138.168 134.688 138.105C134.634 138.042 134.607 137.939 134.607 137.795V129.155C134.607 129.011 134.634 128.907 134.688 128.844C134.751 128.781 134.846 128.75 134.972 128.75H138.86C139.031 128.75 139.116 128.885 139.116 129.155V129.371C139.116 129.641 139.031 129.776 138.86 129.776H135.822V132.854H138.549C138.72 132.854 138.806 132.989 138.806 133.259V133.475C138.806 133.745 138.72 133.88 138.549 133.88H135.822V137.174H138.86C138.95 137.174 139.013 137.205 139.049 137.268C139.094 137.331 139.116 137.435 139.116 137.579V137.795C139.116 137.939 139.094 138.042 139.049 138.105C139.013 138.168 138.95 138.2 138.86 138.2H134.972ZM140.385 138.227C140.052 138.227 139.886 138.15 139.886 137.997C139.886 137.97 139.895 137.912 139.913 137.822L142.356 128.979C142.41 128.808 142.59 128.723 142.896 128.723H143.328C143.652 128.723 143.832 128.808 143.868 128.979L146.312 137.822C146.339 137.885 146.352 137.943 146.352 137.997C146.352 138.069 146.307 138.128 146.217 138.173C146.136 138.209 146.015 138.227 145.853 138.227H145.623C145.335 138.227 145.173 138.155 145.137 138.011L144.557 135.797H141.654L141.087 138.011C141.051 138.155 140.889 138.227 140.601 138.227H140.385ZM144.26 134.771L143.301 131.072C143.274 130.955 143.225 130.68 143.153 130.248H143.085C143.067 130.311 143.049 130.415 143.031 130.559L142.923 131.072L141.965 134.771H144.26ZM147.944 138.2C147.818 138.2 147.723 138.168 147.66 138.105C147.606 138.042 147.579 137.939 147.579 137.795V129.02C147.579 128.822 147.75 128.723 148.092 128.723H148.281C148.623 128.723 148.794 128.822 148.794 129.02V137.174H151.602C151.701 137.174 151.769 137.205 151.805 137.268C151.85 137.331 151.872 137.435 151.872 137.579V137.795C151.872 137.939 151.85 138.042 151.805 138.105C151.769 138.168 151.701 138.2 151.602 138.2H147.944Z" fill="#1E5064"/>
</g>
<defs>
<filter id="filter0_d_2953_470" x="0" y="0.4" width="234" height="234" filterUnits="userSpaceOnUse" color-interpolation-filters="sRGB">
<feFlood flood-opacity="0" result="BackgroundImageFix"/>
<feColorMatrix in="SourceAlpha" type="matrix" values="0 0 0 0 0 0 0 0 0 0 0 0 0 0 0 0 0 0 127 0" result="hardAlpha"/>
<feOffset dy="5.4"/>
<feGaussianBlur stdDeviation="27"/>
<feColorMatrix type="matrix" values="0 0 0 0 0 0 0 0 0 0 0 0 0 0 0 0 0 0 0.1 0"/>
<feBlend mode="normal" in2="BackgroundImageFix" result="effect1_dropShadow_2953_470"/>
<feBlend mode="normal" in="SourceGraphic" in2="effect1_dropShadow_2953_470" result="shape"/>
</filter>
<filter id="filter1_d_2953_470" x="8.55078" y="8.94999" width="216.898" height="216.9" filterUnits="userSpaceOnUse" color-interpolation-filters="sRGB">
<feFlood flood-opacity="0" result="BackgroundImageFix"/>
<feColorMatrix in="SourceAlpha" type="matrix" values="0 0 0 0 0 0 0 0 0 0 0 0 0 0 0 0 0 0 127 0" result="hardAlpha"/>
<feOffset dy="5.4"/>
<feGaussianBlur stdDeviation="27"/>
<feColorMatrix type="matrix" values="0 0 0 0 0 0 0 0 0 0 0 0 0 0 0 0 0 0 0.1 0"/>
<feBlend mode="normal" in2="BackgroundImageFix" result="effect1_dropShadow_2953_470"/>
<feBlend mode="normal" in="SourceGraphic" in2="effect1_dropShadow_2953_470" result="shape"/>
</filter>
</defs>
</svg>
