<svg width="300" height="243" viewBox="0 0 300 243" fill="none" xmlns="http://www.w3.org/2000/svg">
<path d="M18.2463 61.1352C15.8122 61.2979 14.5518 60.7301 14.4651 59.432L11.8625 20.4867C11.7758 19.1885 12.9494 18.4581 15.3835 18.2954L18.0002 18.1206C18.8927 18.0609 19.6702 18.1108 20.3329 18.2703C21.0361 18.4271 21.6338 18.8354 22.1262 19.4952L37.2289 39.6959C37.7158 40.2746 38.1405 40.8371 38.503 41.3833C38.9061 41.9269 39.2916 42.5123 39.6595 43.1397L39.8989 43.0626C39.8122 42.3757 39.7296 41.7496 39.6511 41.1844C39.6104 40.5758 39.5603 39.8253 39.5006 38.9328L38.1506 18.73C38.0638 17.4318 39.2375 16.7014 41.6716 16.5387L43.4363 16.4208C45.8703 16.2581 47.1308 16.8259 47.2175 18.1241L49.82 57.0693C49.9068 58.3675 48.7331 59.0979 46.2991 59.2606L43.9867 59.4151C43.0942 59.4748 42.2963 59.4262 41.5931 59.2694C40.9305 59.11 40.353 58.7003 39.8607 58.0405L24.4333 37.5559C23.987 36.9745 23.5623 36.412 23.1592 35.8684C22.7561 35.3249 22.3707 34.7394 22.0027 34.112L21.7634 34.1891C21.8906 34.8734 21.9746 35.5197 22.0152 36.1283C22.0532 36.6962 22.102 37.4264 22.1616 38.3189L23.532 58.8261C23.6188 60.1242 22.4451 60.8546 20.011 61.0173L18.2463 61.1352Z" fill="white"/>
<path d="M76.43 57.6138C70.1825 58.0313 65.2302 56.4878 61.5731 52.9833C57.9538 49.4354 55.9097 44.1524 55.4407 37.1341C54.9717 30.1159 56.296 24.6281 59.4138 20.6708C62.5694 16.6703 67.2709 14.4613 73.5184 14.0438C79.8064 13.6236 84.7398 15.1888 88.3184 18.7393C91.935 22.2465 93.9778 27.5093 94.4468 34.5275C94.9158 41.5458 93.5928 47.0538 90.4777 51.0517C87.4006 55.0062 82.718 57.1936 76.43 57.6138Z" fill="white"/>
<path d="M113.094 54.797C110.66 54.9596 109.4 54.3919 109.313 53.0937L107.121 20.2945L97.4455 20.941C96.2285 21.0224 95.5522 20.0488 95.4166 18.0204L95.2906 16.134C95.155 14.1056 95.6958 13.0508 96.9128 12.9694L125.696 11.046C126.913 10.9647 127.589 11.9382 127.725 13.9666L127.851 15.853C127.986 17.8814 127.446 18.9363 126.228 19.0176L116.553 19.6642L118.745 52.4634C118.832 53.7616 117.658 54.492 115.224 54.6546L113.094 54.797Z" fill="white"/>
<path d="M139.189 53.0531C136.755 53.2158 135.495 52.648 135.408 51.3499L132.805 12.4046C132.719 11.1064 133.892 10.376 136.326 10.2134L138.456 10.071C140.89 9.90837 142.151 10.4761 142.237 11.7743L143.242 26.8047L159.672 25.7068L158.667 10.6764C158.581 9.37817 159.754 8.64776 162.188 8.4851L164.318 8.34277C166.752 8.18011 168.013 8.74787 168.099 10.046L170.702 48.9913C170.789 50.2895 169.615 51.0199 167.181 51.1826L165.051 51.3249C162.617 51.4876 161.357 50.9198 161.27 49.6216L160.209 33.7392L143.779 34.8372L144.84 50.7196C144.927 52.0177 143.753 52.7482 141.319 52.9108L139.189 53.0531Z" fill="white"/>
<path d="M183.031 50.1845C180.597 50.3472 179.335 49.7591 179.245 48.4204L176.643 9.47512C176.553 8.13638 177.726 7.38568 180.16 7.22302L182.29 7.08069C184.724 6.91803 185.985 7.50607 186.075 8.84482L188.677 47.7901C188.767 49.1288 187.595 49.8795 185.161 50.0422L183.031 50.1845Z" fill="white"/>
<path d="M200.564 48.9517C198.13 49.1144 196.87 48.5466 196.783 47.2484L194.181 8.30315C194.094 7.00497 195.268 6.27456 197.702 6.1119L200.318 5.93704C201.211 5.8774 201.988 5.92731 202.651 6.08677C203.354 6.24353 203.952 6.65182 204.444 7.31166L219.547 27.5123C220.034 28.091 220.459 28.6535 220.821 29.1998C221.224 29.7433 221.61 30.3288 221.978 30.9562L222.217 30.8791C222.13 30.1921 222.048 29.5661 221.969 29.0008C221.929 28.3923 221.878 27.6418 221.819 26.7493L220.469 6.54643C220.382 5.24826 221.556 4.51784 223.99 4.35518L225.754 4.23725C228.188 4.07459 229.449 4.64235 229.536 5.94053L232.138 44.8858C232.225 46.184 231.051 46.9144 228.617 47.077L226.305 47.2316C225.412 47.2912 224.614 47.2427 223.911 47.0859C223.249 46.9264 222.671 46.5168 222.179 45.857L206.751 25.3724C206.305 24.7909 205.88 24.2285 205.477 23.6849C205.074 23.1413 204.689 22.5559 204.321 21.9285L204.081 22.0056C204.209 22.6898 204.293 23.3362 204.333 23.9447C204.371 24.5127 204.42 25.2429 204.48 26.1354L205.85 46.6425C205.937 47.9407 204.763 48.6711 202.329 48.8338L200.564 48.9517Z" fill="white"/>
<path d="M259.235 45.3977C252.419 45.8532 247.251 44.426 243.729 41.1162C240.245 37.7631 238.252 32.334 237.751 24.8289C237.265 17.5672 238.607 12.0375 241.776 8.23983C244.943 4.40156 249.893 2.25741 256.628 1.80739C257.966 1.71793 259.393 1.72446 260.907 1.827C262.422 1.92953 263.862 2.1389 265.228 2.45512C266.591 2.73077 267.696 3.10518 268.543 3.57834C269.427 4.00823 269.891 4.54771 269.934 5.1968C269.972 5.76475 269.799 6.53017 269.416 7.49306C269.029 8.41537 268.556 9.26197 267.996 10.0329C267.434 10.7632 266.889 11.146 266.361 11.1812C266.118 11.1975 265.62 11.0677 264.868 10.792C264.157 10.5135 263.141 10.2554 261.822 10.0176C260.542 9.77711 258.929 9.72192 256.982 9.85205C254.588 10.012 252.634 10.6519 251.12 11.7719C249.646 12.8891 248.592 14.4876 247.956 16.5675C247.362 18.6447 247.166 21.2046 247.369 24.2472C247.521 26.5191 247.858 28.5136 248.38 30.2309C248.943 31.9455 249.69 33.3626 250.62 34.4821C251.589 35.5584 252.742 36.3574 254.081 36.8792C255.417 37.3604 256.958 37.5427 258.702 37.4261C260 37.3394 261.171 37.1796 262.215 36.9469C263.3 36.7114 264.58 36.361 266.057 35.8955L263.656 40.2124L262.904 28.9548L257.549 29.3126C256.332 29.394 255.655 28.4204 255.52 26.392L255.39 24.4448C255.254 22.4164 255.795 21.3615 257.012 21.2802L269.365 20.4547C270.988 20.3462 271.853 21.1034 271.962 22.7261L273.092 39.6429C273.163 40.6977 272.692 41.5849 271.681 42.3045C270.667 42.9835 269.4 43.5367 267.88 43.9643C266.36 44.3919 264.813 44.7194 263.239 44.9468C261.665 45.1742 260.33 45.3245 259.235 45.3977Z" fill="white"/>
<path d="M79.3312 114.352C76.9243 114.504 75.6801 113.939 75.5986 112.655L73.1921 74.7458C73.0903 73.1411 73.8417 72.2879 75.4463 72.186L95.2435 70.9293C96.4469 70.8529 97.1123 71.8176 97.2397 73.8234L97.3581 75.6888C97.4854 77.6946 96.9473 78.7357 95.7439 78.8121L82.8065 79.6333L83.4788 90.2239L95.9949 89.4294C97.1984 89.353 97.8638 90.3177 97.9911 92.3235L98.1095 94.1889C98.2369 96.1947 97.6988 97.2358 96.4953 97.3122L83.9792 98.1067L84.8653 112.067C84.9468 113.351 83.7841 114.069 81.3771 114.222L79.3312 114.352Z" fill="white"/>
<path d="M108.876 112.537C106.469 112.689 105.224 112.104 105.14 110.78L102.695 72.2688C102.611 70.945 103.772 70.2067 106.179 70.0539L108.285 69.9202C110.692 69.7674 111.938 70.3529 112.022 71.6767L114.467 110.188C114.551 111.512 113.389 112.25 110.982 112.403L108.876 112.537Z" fill="white"/>
<path d="M133.94 111.248C130.891 111.441 128.304 111.303 126.18 110.834C124.053 110.325 122.424 109.723 121.293 109.03C120.121 108.339 119.511 107.612 119.463 106.85C119.422 106.208 119.597 105.472 119.987 104.642C120.375 103.771 120.849 102.996 121.41 102.316C121.971 101.636 122.452 101.283 122.854 101.258C123.054 101.245 123.28 101.311 123.531 101.456C123.819 101.559 124.17 101.698 124.584 101.873C125.412 102.223 126.423 102.602 127.617 103.01C128.851 103.415 130.27 103.566 131.875 103.464C132.757 103.408 133.614 103.253 134.443 102.999C135.31 102.702 136.006 102.235 136.529 101.598C137.09 100.918 137.335 100.016 137.264 98.893C137.187 97.6895 136.665 96.756 135.696 96.0925C134.728 95.429 133.504 94.8623 132.024 94.3923C130.584 93.9198 129.099 93.3696 127.569 92.7418C126.496 92.3266 125.457 91.8286 124.454 91.2479C123.448 90.627 122.514 89.8807 121.653 89.009C120.832 88.1347 120.161 87.0697 119.638 85.814C119.113 84.5182 118.793 82.9677 118.678 81.1625C118.495 78.2742 119.049 75.9029 120.341 74.0486C121.63 72.1543 123.333 70.7372 125.448 69.7974C127.601 68.8149 129.841 68.2498 132.168 68.1021C133.612 68.0104 134.942 68.0267 136.158 68.1509C137.374 68.2751 138.455 68.4884 139.401 68.7909C140.384 69.0507 141.19 69.3821 141.82 69.7852C142.744 70.371 143.226 70.9849 143.266 71.6267C143.299 72.1482 143.162 72.8417 142.855 73.707C142.587 74.5698 142.213 75.3387 141.732 76.0137C141.251 76.6886 140.77 77.0414 140.289 77.0719C140.088 77.0847 139.803 77.0223 139.431 76.8847C139.1 76.7446 138.647 76.5921 138.073 76.4272C137.539 76.2597 136.887 76.14 136.117 76.068C135.385 75.9534 134.517 75.9279 133.514 75.9916C131.95 76.0909 130.778 76.3465 129.998 76.7585C129.219 77.1705 128.705 77.6461 128.458 78.1855C128.21 78.7248 128.101 79.2352 128.132 79.7165C128.201 80.7997 128.559 81.6832 129.206 82.3671C129.852 83.0108 130.671 83.5429 131.664 83.9631C132.657 84.3834 133.751 84.7973 134.945 85.2049C136.222 85.6474 137.522 86.1489 138.847 86.7093C140.169 87.2295 141.4 87.9166 142.542 88.7705C143.684 89.6244 144.62 90.733 145.351 92.0963C146.122 93.4571 146.573 95.1604 146.703 97.2064C146.858 99.6534 146.588 101.745 145.892 103.481C145.237 105.214 144.281 106.644 143.023 107.771C141.763 108.858 140.346 109.693 138.772 110.276C137.195 110.82 135.585 111.143 133.94 111.248Z" fill="white"/>
<path d="M156.783 109.435C154.376 109.588 153.132 109.022 153.05 107.739L150.606 69.2275C150.524 67.9438 151.687 67.2256 154.094 67.0728L156.2 66.9391C158.607 66.7863 159.851 67.3517 159.933 68.6354L160.876 83.4984L177.123 82.4671L176.179 67.6041C176.098 66.3204 177.261 65.6022 179.668 65.4494L181.774 65.3157C184.181 65.1629 185.425 65.7283 185.506 67.0121L187.951 105.523C188.033 106.807 186.87 107.525 184.463 107.678L182.357 107.812C179.95 107.965 178.706 107.399 178.624 106.115L177.627 90.41L161.38 91.4413L162.377 107.147C162.459 108.43 161.296 109.149 158.889 109.301L156.783 109.435Z" fill="white"/>
<path d="M208.496 106.152C206.089 106.305 204.845 105.74 204.763 104.456L203.595 86.0429L190.394 67.4872C189.949 66.8307 189.717 66.342 189.697 66.0211C189.674 65.66 189.957 65.3601 190.546 65.1213C191.172 64.8399 192.148 64.6572 193.471 64.5731L196.059 64.4089C196.941 64.3529 197.689 64.386 198.301 64.5082C198.953 64.628 199.433 64.8995 199.742 65.323L207.901 77.7342L214.484 64.3872C214.737 63.9281 215.159 63.5992 215.751 63.4005C216.383 63.1993 217.14 63.0707 218.022 63.0147L220.189 62.8772C222.716 62.7167 224.005 63.0377 224.056 63.84C224.066 64.0005 224.04 64.2236 223.978 64.5095C223.913 64.7553 223.79 65.0451 223.61 65.3787L212.873 85.6352L214.03 103.868C214.112 105.152 212.949 105.87 210.542 106.023L208.496 106.152Z" fill="white"/>
<path fill-rule="evenodd" clip-rule="evenodd" d="M258.829 161.001C258.916 162.29 260.169 162.853 262.587 162.69L264.34 162.571C266.758 162.408 267.924 161.681 267.836 160.391L266.458 140.018L266.311 137.842C266.27 137.238 266.186 136.595 266.059 135.916L266.297 135.839C266.663 136.462 267.046 137.043 267.447 137.583C267.848 138.123 268.271 138.681 268.714 139.259L284.058 159.598C284.548 160.253 285.122 160.659 285.78 160.817C286.479 160.972 287.272 161.02 288.159 160.96L290.456 160.804C292.874 160.641 294.039 159.914 293.952 158.625L291.335 119.934C291.248 118.645 289.995 118.082 287.577 118.245L285.824 118.364C283.406 118.527 282.24 119.254 282.327 120.544L283.685 140.614L283.836 142.851C283.915 143.413 283.997 144.034 284.084 144.717L283.846 144.794C283.48 144.171 283.097 143.589 282.696 143.05C282.335 142.507 281.913 141.949 281.429 141.374L266.408 121.317C265.918 120.662 265.324 120.257 264.625 120.102C263.967 119.944 263.194 119.895 262.307 119.955L259.708 120.131C257.29 120.294 256.124 121.021 256.211 122.31L258.829 161.001ZM232.72 165.074C226.514 165.494 221.593 163.965 217.956 160.486C214.358 156.964 212.323 151.717 211.851 144.745C211.379 137.773 212.691 132.319 215.785 128.385C218.917 124.408 223.586 122.21 229.792 121.79C236.039 121.367 240.942 122.918 244.5 126.443C248.096 129.924 250.13 135.151 250.602 142.124C251.073 149.096 249.763 154.569 246.672 158.544C243.618 162.475 238.967 164.652 232.72 165.074ZM162.655 164.531C166.157 167.816 171.293 169.23 178.064 168.772C179.152 168.698 180.478 168.548 182.042 168.321C183.605 168.093 185.142 167.767 186.652 167.341C188.161 166.915 189.42 166.364 190.427 165.689C191.431 164.973 191.898 164.091 191.827 163.043L190.69 146.237C190.581 144.625 189.72 143.874 188.108 143.983L175.836 144.813C174.627 144.895 174.091 145.943 174.227 147.958L174.358 149.893C174.494 151.908 175.167 152.874 176.376 152.793L181.696 152.433L182.213 160.087C181.792 160.196 181.393 160.292 181.018 160.373C179.981 160.606 178.818 160.765 177.528 160.852C175.795 160.97 174.265 160.79 172.937 160.313C171.607 159.796 170.46 159.003 169.497 157.934C168.571 156.823 167.828 155.415 167.268 153.712C166.748 152.007 166.411 150.025 166.258 147.768C166.054 144.746 166.246 142.202 166.835 140.138C167.465 138.071 168.511 136.482 169.975 135.371C171.478 134.257 173.419 133.62 175.797 133.459C177.731 133.328 179.334 133.382 180.605 133.619C181.917 133.855 182.926 134.11 183.633 134.386C184.38 134.66 184.875 134.788 185.116 134.772C185.64 134.736 186.181 134.356 186.74 133.63C187.295 132.863 187.765 132.022 188.148 131.105C188.528 130.148 188.7 129.388 188.662 128.823C188.618 128.179 188.157 127.643 187.277 127.217C186.436 126.747 185.338 126.376 183.984 126.103C182.626 125.79 181.195 125.583 179.69 125.483C178.186 125.382 176.768 125.377 175.438 125.467C168.748 125.919 163.832 128.054 160.689 131.869C157.543 135.645 156.215 141.14 156.703 148.354C157.207 155.81 159.191 161.202 162.655 164.531ZM119.778 172.35C117.359 172.514 116.107 171.951 116.02 170.661L113.402 131.971C113.315 130.681 114.48 129.955 116.899 129.791L119.498 129.615C120.385 129.555 121.157 129.604 121.816 129.762C122.515 129.917 123.109 130.323 123.598 130.978L138.62 151.035C139.104 151.609 139.526 152.168 139.887 152.71C140.288 153.25 140.671 153.831 141.037 154.454L141.275 154.378C141.188 153.695 141.106 153.073 141.027 152.512L140.876 150.275L139.518 130.204C139.431 128.915 140.596 128.188 143.014 128.025L144.768 127.906C147.186 127.742 148.438 128.305 148.526 129.595L151.143 168.285C151.23 169.575 150.065 170.302 147.647 170.465L145.349 170.621C144.463 170.68 143.67 170.633 142.971 170.478C142.313 170.32 141.739 169.913 141.249 169.258L125.905 148.919C125.461 148.342 125.039 147.783 124.638 147.244C124.237 146.704 123.854 146.123 123.488 145.5L123.25 145.576C123.377 146.256 123.461 146.898 123.502 147.503L123.649 149.679L125.027 170.052C125.114 171.342 123.949 172.068 121.531 172.232L119.778 172.35ZM98.5967 171.84C98.6867 173.17 99.9407 173.753 102.359 173.589L104.475 173.446C106.893 173.283 108.057 172.536 107.967 171.206L105.35 132.516C105.26 131.186 104.006 130.603 101.588 130.766L99.4717 130.909C97.0535 131.073 95.8895 131.82 95.9794 133.15L98.5967 171.84ZM72.7907 175.893C66.5842 176.313 61.6628 174.784 58.0266 171.305C54.428 167.783 52.3928 162.536 51.9212 155.564C51.4495 148.591 52.7608 143.138 55.8551 139.204C58.9869 135.227 63.6561 133.029 69.8626 132.609C76.1095 132.186 81.0121 133.737 84.5704 137.262C88.1663 140.743 90.2001 145.97 90.6717 152.942C91.1434 159.915 89.8335 165.388 86.7419 169.362C83.688 173.294 79.0376 175.471 72.7907 175.893ZM32.6573 178.608C25.8865 179.066 20.7503 177.653 17.2486 174.367C13.7845 171.039 11.8003 165.646 11.2959 158.19C10.8079 150.976 12.1366 145.481 15.2821 141.706C18.4248 137.89 23.3413 135.756 30.0314 135.303C31.3614 135.213 32.7788 135.219 34.2836 135.319C35.7884 135.42 37.2195 135.627 38.5767 135.94C39.9312 136.212 41.0292 136.584 41.8707 137.053C42.7498 137.479 43.2111 138.015 43.2547 138.66C43.2929 139.224 43.1217 139.985 42.741 140.941C42.3577 141.858 41.8883 142.7 41.3328 143.466C40.7746 144.192 40.2336 144.573 39.7097 144.608C39.4678 144.625 38.9733 144.496 38.2261 144.223C37.5191 143.947 36.5099 143.691 35.1984 143.456C33.9272 143.218 32.3244 143.164 30.3899 143.295C28.0121 143.456 26.0713 144.093 24.5677 145.207C23.1044 146.319 22.058 147.908 21.4286 149.974C20.8394 152.039 20.6471 154.582 20.8516 157.605C21.0043 159.862 21.3407 161.843 21.861 163.549C22.4216 165.252 23.1645 166.659 24.0899 167.771C25.0529 168.839 26.1997 169.632 27.5303 170.149C28.8581 170.626 30.3885 170.806 32.1215 170.689C33.4112 170.602 34.5745 170.442 35.6115 170.21C35.9863 170.128 36.3847 170.033 36.8067 169.923L36.2889 162.269L30.969 162.629C29.7599 162.711 29.0872 161.744 28.9509 159.729L28.8201 157.794C28.6837 155.779 29.2201 154.731 30.4292 154.649L42.7012 153.819C44.3133 153.71 45.1739 154.461 45.2829 156.074L46.4198 172.88C46.4907 173.927 46.024 174.809 45.0198 175.525C44.0128 176.2 42.7545 176.751 41.2448 177.177C39.7352 177.603 38.1985 177.93 36.6349 178.157C35.0713 178.384 33.7454 178.535 32.6573 178.608ZM238.088 137.691C237.731 137.663 237.379 137.664 236.996 137.796C236.503 137.966 236.183 138.273 235.845 138.599L235.845 138.599C235.505 138.927 235.154 139.265 234.618 139.449C234.082 139.634 233.597 139.583 233.128 139.534L233.127 139.534C232.66 139.485 232.219 139.439 231.726 139.609C231.233 139.778 230.913 140.086 230.575 140.412L230.575 140.412C230.235 140.739 229.884 141.078 229.348 141.262C228.812 141.446 228.327 141.396 227.857 141.347C227.39 141.298 226.949 141.252 226.456 141.422C226.213 141.505 226.012 141.622 225.83 141.759L225.857 142.09C225.929 142.974 226.003 143.876 226.079 144.795C226.154 145.714 226.225 146.615 226.29 147.496C226.355 148.377 226.413 149.172 226.463 149.879C226.513 150.586 226.555 151.169 226.59 151.627C226.624 152.085 226.642 152.352 226.641 152.427C226.65 152.572 226.891 155.996 227.008 156.282C227.124 156.568 227.283 156.779 227.485 156.917C227.688 157.054 227.944 157.062 228.256 156.941C228.585 156.812 228.86 156.605 229.08 156.32C229.3 156.036 229.476 155.703 229.608 155.323C229.74 154.943 229.834 154.531 229.891 154.087C229.947 153.643 229.983 153.205 229.997 152.774C230.011 152.343 230.01 151.931 229.993 151.54C229.976 151.148 229.954 150.809 229.928 150.522C229.902 150.254 229.881 149.989 229.863 149.726L229.847 149.465C229.827 149.117 229.8 148.764 229.765 148.407C230.353 148.71 231.371 149.286 232.819 150.134C234.268 150.982 235.59 151.534 236.788 151.792C237.986 152.05 238.856 152.053 239.4 151.801C239.944 151.549 240.291 151.338 240.443 151.167C240.594 150.997 240.707 150.811 240.781 150.609C240.856 150.407 240.853 150.212 240.772 150.023C240.726 149.915 240.661 149.812 240.577 149.715C240.493 149.617 240.394 149.545 240.278 149.499C239.458 149.177 238.649 148.911 237.851 148.702C237.053 148.493 236.273 148.271 235.512 148.035C234.75 147.8 234.013 147.528 233.301 147.219C232.588 146.909 231.903 146.496 231.245 145.977C231.769 145.553 232.341 145.074 232.962 144.539C233.583 144.005 234.195 143.429 234.797 142.813C235.398 142.196 235.96 141.54 236.481 140.846C237.002 140.152 237.421 139.438 237.738 138.703C237.882 138.369 237.999 138.032 238.088 137.691ZM234.879 131.766C234.36 131.662 233.819 131.62 233.257 131.64C232.695 131.66 232.123 131.725 231.54 131.834C230.957 131.943 230.386 132.081 229.828 132.249C229.27 132.416 228.735 132.595 228.224 132.786C227.713 132.976 227.245 133.161 226.82 133.341C225.978 133.719 225.139 134.144 224.305 134.615C223.47 135.086 222.675 135.587 221.92 136.12C221.508 136.411 222.513 136.673 223.542 136.845L223.674 136.866C224.484 136.996 225.272 137.068 225.358 137.055C225.387 137.149 225.427 137.432 225.479 137.905C225.53 138.377 225.588 138.972 225.653 139.689L225.67 139.876C225.802 139.797 225.947 139.727 226.109 139.672C226.645 139.487 227.13 139.538 227.599 139.587L227.599 139.587L227.599 139.587C228.067 139.636 228.508 139.682 229.001 139.512C229.494 139.342 229.813 139.035 230.151 138.709L230.152 138.709C230.491 138.382 230.843 138.043 231.379 137.859C231.915 137.674 232.4 137.725 232.869 137.774L232.87 137.774C233.337 137.823 233.778 137.869 234.271 137.699C234.764 137.53 235.083 137.222 235.421 136.896L235.422 136.896C235.761 136.569 236.113 136.23 236.649 136.046C237.185 135.862 237.67 135.912 238.139 135.961L238.139 135.961C238.194 135.967 238.248 135.973 238.302 135.978C238.282 135.369 238.143 134.76 237.884 134.151C237.727 133.782 237.509 133.436 237.228 133.114C236.947 132.792 236.635 132.528 236.291 132.323C235.869 132.056 235.398 131.87 234.879 131.766Z" fill="white"/>
<path d="M92.7001 231.17C90.2758 231.3 89.029 230.718 88.9598 229.425L86.8831 190.636C86.8139 189.343 87.9914 188.631 90.4158 188.502L92.537 188.388C94.9614 188.258 96.2082 188.84 96.2774 190.133L97.0789 205.103L113.443 204.227L112.642 189.257C112.572 187.964 113.75 187.252 116.174 187.123L118.296 187.009C120.72 186.879 121.967 187.461 122.036 188.754L124.113 227.543C124.182 228.836 123.004 229.547 120.58 229.677L118.459 229.791C116.034 229.921 114.787 229.339 114.718 228.046L113.871 212.227L97.5072 213.103L98.3541 228.922C98.4233 230.215 97.2457 230.926 94.8214 231.056L92.7001 231.17Z" fill="white"/>
<path d="M135.931 228.734C134.315 228.82 133.464 228.055 133.377 226.439L131.366 188.862C131.279 187.246 132.044 186.394 133.66 186.308L154.934 185.169C156.146 185.104 156.806 186.082 156.914 188.102L157.015 189.981C157.123 192.001 156.571 193.044 155.359 193.109L140.994 193.878L141.465 202.666L154.193 201.985C155.405 201.92 156.065 202.897 156.173 204.918L156.274 206.796C156.382 208.817 155.83 209.859 154.618 209.924L141.89 210.606L142.416 220.424L156.84 219.652C158.053 219.587 158.713 220.565 158.821 222.585L158.921 224.464C159.03 226.484 158.478 227.527 157.266 227.592L135.931 228.734Z" fill="white"/>
<path d="M169.751 227.045C167.327 227.174 166.08 226.593 166.011 225.3L163.967 187.117C163.88 185.5 164.645 184.649 166.261 184.563L178.08 183.93C183.332 183.649 187.204 184.434 189.694 186.286C192.224 188.136 193.587 190.88 193.781 194.516C193.907 196.86 193.347 198.895 192.102 200.624C190.896 202.309 189.264 203.612 187.206 204.533L187.219 204.775C188.002 205.017 188.826 205.661 189.693 206.709C190.557 207.716 191.287 208.852 191.881 210.117L197.929 223.166C198.159 223.68 198.28 224.059 198.293 224.301C198.337 225.109 197.146 225.578 194.722 225.708L192.237 225.841C191.348 225.888 190.576 225.849 189.921 225.722C189.304 225.552 188.881 225.23 188.653 224.756L183.233 213.194C182.562 212.014 181.826 211.142 181.026 210.577C180.266 210.01 178.896 209.779 176.916 209.885L174.553 210.012L175.344 224.8C175.414 226.093 174.236 226.805 171.812 226.934L169.751 227.045ZM174.121 201.951L179.879 201.643C180.727 201.597 181.483 201.334 182.146 200.853C182.848 200.329 183.38 199.672 183.743 198.883C184.144 198.051 184.319 197.15 184.267 196.18C184.191 194.766 183.667 193.68 182.694 192.922C181.76 192.121 180.505 191.762 178.929 191.847L173.596 192.132L174.121 201.951Z" fill="white"/>
<path d="M206.01 224.982C204.393 225.068 203.542 224.304 203.456 222.687L201.444 185.11C201.357 183.494 202.122 182.643 203.738 182.556L225.012 181.417C226.224 181.352 226.884 182.33 226.992 184.35L227.093 186.229C227.201 188.249 226.649 189.292 225.437 189.357L211.073 190.126L211.543 198.914L224.271 198.233C225.483 198.168 226.143 199.145 226.251 201.166L226.352 203.045C226.46 205.065 225.908 206.107 224.696 206.172L211.968 206.854L212.494 216.672L226.919 215.9C228.131 215.835 228.791 216.813 228.899 218.833L229 220.712C229.108 222.732 228.556 223.775 227.344 223.84L206.01 224.982Z" fill="white"/>
</svg>
