<?xml version="1.0" encoding="UTF-8"?>
<svg width="48px" height="48px" viewBox="0 0 48 48" version="1.1" xmlns="http://www.w3.org/2000/svg" xmlns:xlink="http://www.w3.org/1999/xlink">
    <title>Arrow-Go</title>
    <g id="Symbols" stroke="none" stroke-width="1" fill="none" fill-rule="evenodd">
        <g id="08-Footer" transform="translate(-1197.000000, -270.000000)">
            <g id="Arrow-Go" transform="translate(1197.000000, 270.000000)">
                <rect id="Rectangle" fill="#F0555E" x="0" y="0" width="48" height="48" rx="24"></rect>
                <path d="M19.312,29.136 C19.376,29.136 19.488,29.096 19.648,29.016 L19.648,29.016 L27.664,24.768 C27.872,24.656 28.02,24.524 28.108,24.372 C28.196,24.22 28.24,24.008 28.24,23.736 L28.24,23.736 L28.24,23.28 C28.24,23.024 28.196,22.82 28.108,22.668 C28.02,22.516 27.872,22.384 27.664,22.272 L27.664,22.272 L19.96,18.192 C19.704,18.064 19.528,18 19.432,18 C19.272,18 19.168,18.072 19.12,18.216 C19.072,18.36 19.048,18.584 19.048,18.888 L19.048,18.888 L19.048,19.272 C19.048,19.72 19.088,20.044 19.168,20.244 C19.248,20.444 19.408,20.624 19.648,20.784 L19.648,20.784 L24.52,23.52 L19.6,26.256 C19.328,26.432 19.16,26.604 19.096,26.772 C19.032,26.94 19,27.272 19,27.768 L19,27.768 L19,28.152 C19,28.504 19.02,28.756 19.06,28.908 C19.1,29.06 19.184,29.136 19.312,29.136 Z" id="&gt;" fill="#FFFFFF" fill-rule="nonzero"></path>
            </g>
        </g>
    </g>
</svg>