<svg width="385" height="174" viewBox="0 0 385 174" fill="none" xmlns="http://www.w3.org/2000/svg">
<g clip-path="url(#clip0_56_772)">
<path d="M18.8201 173.965C26.5953 173.965 30.4829 171.829 30.4829 167.558V120.57H58.6681C62.4261 120.57 64.3051 117.334 64.3051 110.861V104.842C64.3051 98.37 62.4261 95.1339 58.6681 95.1339H30.4829V63.0964H60.4175C64.1755 63.0964 66.0545 59.8603 66.0545 53.3881V47.369C66.0545 40.8968 64.1755 37.6607 60.4175 37.6607H7.54607C2.75136 37.6607 0.354004 40.2496 0.354004 45.4273V167.558C0.354004 171.829 4.24161 173.965 12.0168 173.965H18.8201ZM102.164 173.965C109.939 173.965 113.827 171.829 113.827 167.558V43.6798C113.827 39.4082 109.939 37.2723 102.164 37.2723H95.3608C87.5856 37.2723 83.698 39.4082 83.698 43.6798V167.558C83.698 171.829 87.5856 173.965 95.3608 173.965H102.164ZM196.782 173.577C200.67 173.577 202.614 170.341 202.614 163.869V157.85C202.614 151.377 200.67 148.141 196.782 148.141H168.403V43.6798C168.403 39.4082 164.515 37.2723 156.74 37.2723H149.937C142.161 37.2723 138.274 39.4082 138.274 43.6798V165.81C138.274 170.988 140.671 173.577 145.466 173.577H196.782ZM282.848 173.577C286.735 173.577 288.679 170.341 288.679 163.869V157.85C288.679 151.377 286.735 148.141 282.848 148.141H248.637V116.686H279.154C282.912 116.686 284.791 113.45 284.791 106.978V100.959C284.791 94.4866 282.912 91.2505 279.154 91.2505H248.637V63.0964H282.848C286.735 63.0964 288.679 59.8603 288.679 53.3881V47.369C288.679 40.8968 286.735 37.6607 282.848 37.6607H225.7C220.905 37.6607 218.508 40.2496 218.508 45.4273V165.81C218.508 170.988 220.905 173.577 225.7 173.577H282.848ZM342.672 173.965C350.447 173.965 354.334 171.829 354.334 167.558V63.0964H376.105C379.993 63.0964 381.936 59.8603 381.936 53.3881V47.369C381.936 40.8968 379.993 37.6607 376.105 37.6607H302.435C298.547 37.6607 296.603 40.8968 296.603 47.369V53.3881C296.603 59.8603 298.547 63.0964 302.435 63.0964H324.205V167.558C324.205 171.829 328.093 173.965 335.868 173.965H342.672Z" fill="white"/>
<path d="M149.926 6.26508H0.353027V8.86157H149.926V6.26508Z" fill="white"/>
<path d="M384.635 6.26508H235.062V8.86157H384.635V6.26508Z" fill="white"/>
<path d="M177.163 17.7051C177.796 17.7051 178.113 17.5207 178.113 17.1518V1.96164H181.665C181.848 1.96164 181.977 1.90296 182.052 1.7856C182.127 1.66823 182.165 1.47542 182.165 1.20716V0.804777C182.165 0.536518 182.127 0.343707 182.052 0.226343C181.977 0.10898 181.848 0.0502985 181.665 0.0502985H172.261C171.944 0.0502985 171.786 0.301791 171.786 0.804777V1.20716C171.786 1.71015 171.944 1.96164 172.261 1.96164H175.862V17.1518C175.862 17.5207 176.179 17.7051 176.813 17.7051H177.163ZM189.789 17.7051C190.406 17.7051 190.715 17.5207 190.715 17.1518V9.58187H197.292V17.1518C197.292 17.5207 197.609 17.7051 198.243 17.7051H198.593C199.226 17.7051 199.543 17.5207 199.543 17.1518V0.553284C199.543 0.184428 199.226 0 198.593 0H198.243C197.609 0 197.292 0.184428 197.292 0.553284V7.67053H190.715V0.553284C190.715 0.184428 190.406 0 189.789 0H189.414C188.78 0 188.464 0.184428 188.464 0.553284V17.1518C188.464 17.5207 188.78 17.7051 189.414 17.7051H189.789ZM215.221 17.6548C215.387 17.6548 215.508 17.5961 215.583 17.4787C215.658 17.3614 215.696 17.1686 215.696 16.9003V16.4979C215.696 16.2297 215.658 16.0368 215.583 15.9195C215.508 15.8021 215.387 15.7434 215.221 15.7434H209.593V9.60702H214.645C214.962 9.60702 215.121 9.35553 215.121 8.85254V8.45015C215.121 7.94717 214.962 7.69568 214.645 7.69568H209.593V1.96164H215.221C215.537 1.96164 215.696 1.71015 215.696 1.20716V0.804777C215.696 0.301791 215.537 0.0502985 215.221 0.0502985H208.018C207.784 0.0502985 207.613 0.10898 207.505 0.226343C207.397 0.343707 207.342 0.536518 207.342 0.804777V16.9003C207.342 17.1686 207.397 17.3614 207.505 17.4787C207.613 17.5961 207.784 17.6548 208.018 17.6548H215.221Z" fill="white"/>
</g>
<defs>
<clipPath id="clip0_56_772">
<rect width="384.281" height="173.965" fill="white" transform="translate(0.359375)"/>
</clipPath>
</defs>
</svg>
