<svg width="385" height="174" viewBox="0 0 385 174" fill="none" xmlns="http://www.w3.org/2000/svg">
<g clip-path="url(#clip0_561_442)">
<path d="M18.5045 173.958C26.2797 173.958 30.1673 171.823 30.1673 167.551V120.563H58.3524C62.1104 120.563 63.9894 117.327 63.9894 110.854V104.835C63.9894 98.3631 62.1104 95.127 58.3524 95.127H30.1673V63.0895H60.1018C63.8599 63.0895 65.7389 59.8534 65.7389 53.3812V47.3621C65.7389 40.8899 63.8599 37.6538 60.1018 37.6538H7.2304C2.43569 37.6538 0.0383301 40.2427 0.0383301 45.4204V167.551C0.0383301 171.823 3.92594 173.958 11.7011 173.958H18.5045ZM101.848 173.958C109.624 173.958 113.511 171.823 113.511 167.551V43.6729C113.511 39.4013 109.624 37.2654 101.848 37.2654H95.0452C87.27 37.2654 83.3824 39.4013 83.3824 43.6729V167.551C83.3824 171.823 87.27 173.958 95.0452 173.958H101.848ZM196.467 173.57C200.354 173.57 202.298 170.334 202.298 163.862V157.843C202.298 151.37 200.354 148.134 196.467 148.134H168.087V43.6729C168.087 39.4013 164.199 37.2654 156.424 37.2654H149.621C141.846 37.2654 137.958 39.4013 137.958 43.6729V165.803C137.958 170.981 140.355 173.57 145.15 173.57H196.467ZM282.532 173.57C286.42 173.57 288.363 170.334 288.363 163.862V157.843C288.363 151.37 286.42 148.134 282.532 148.134H248.321V116.679H278.839C282.597 116.679 284.476 113.443 284.476 106.971V100.952C284.476 94.4797 282.597 91.2436 278.839 91.2436H248.321V63.0895H282.532C286.42 63.0895 288.363 59.8534 288.363 53.3812V47.3621C288.363 40.8899 286.42 37.6538 282.532 37.6538H225.384C220.589 37.6538 218.192 40.2427 218.192 45.4204V165.803C218.192 170.981 220.589 173.57 225.384 173.57H282.532ZM342.356 173.958C350.131 173.958 354.019 171.823 354.019 167.551V63.0895H375.789C379.677 63.0895 381.621 59.8534 381.621 53.3812V47.3621C381.621 40.8899 379.677 37.6538 375.789 37.6538H302.119C298.232 37.6538 296.288 40.8899 296.288 47.3621V53.3812C296.288 59.8534 298.232 63.0895 302.119 63.0895H323.89V167.551C323.89 171.823 327.777 173.958 335.553 173.958H342.356Z" fill="#363131"/>
<path d="M149.611 6.25574H0.0383301V8.85223H149.611V6.25574Z" fill="#363131"/>
<path d="M384.316 6.25574H234.743V8.85223H384.316V6.25574Z" fill="#363131"/>
<path d="M176.845 17.6961C177.479 17.6961 177.795 17.5116 177.795 17.1428V1.95261H181.347C181.53 1.95261 181.659 1.89393 181.734 1.77656C181.809 1.6592 181.847 1.46639 181.847 1.19813V0.795743C181.847 0.527484 181.809 0.334673 181.734 0.21731C181.659 0.099947 181.53 0.0412653 181.347 0.0412653H171.943C171.626 0.0412653 171.468 0.292758 171.468 0.795743V1.19813C171.468 1.70112 171.626 1.95261 171.943 1.95261H175.544V17.1428C175.544 17.5116 175.861 17.6961 176.495 17.6961H176.845ZM189.471 17.6961C190.088 17.6961 190.397 17.5116 190.397 17.1428V9.57284H196.974V17.1428C196.974 17.5116 197.291 17.6961 197.925 17.6961H198.275C198.908 17.6961 199.225 17.5116 199.225 17.1428V0.544251C199.225 0.175395 198.908 -0.0090332 198.275 -0.0090332H197.925C197.291 -0.0090332 196.974 0.175395 196.974 0.544251V7.66149H190.397V0.544251C190.397 0.175395 190.088 -0.0090332 189.471 -0.0090332H189.096C188.462 -0.0090332 188.146 0.175395 188.146 0.544251V17.1428C188.146 17.5116 188.462 17.6961 189.096 17.6961H189.471ZM214.903 17.6458C215.069 17.6458 215.19 17.5871 215.265 17.4697C215.34 17.3523 215.378 17.1595 215.378 16.8913V16.4889C215.378 16.2206 215.34 16.0278 215.265 15.9105C215.19 15.7931 215.069 15.7344 214.903 15.7344H209.275V9.59799H214.328C214.644 9.59799 214.803 9.34649 214.803 8.84351V8.44112C214.803 7.93814 214.644 7.68664 214.328 7.68664H209.275V1.95261H214.903C215.22 1.95261 215.378 1.70112 215.378 1.19813V0.795743C215.378 0.292758 215.22 0.0412653 214.903 0.0412653H207.7C207.466 0.0412653 207.295 0.099947 207.187 0.21731C207.079 0.334673 207.025 0.527484 207.025 0.795743V16.8913C207.025 17.1595 207.079 17.3523 207.187 17.4697C207.295 17.5871 207.466 17.6458 207.7 17.6458H214.903Z" fill="#363131"/>
</g>
<defs>
<clipPath id="clip0_561_442">
<rect width="384.281" height="173.965" fill="white" transform="translate(-0.000244141 0.000610352)"/>
</clipPath>
</defs>
</svg>
