<svg width="1440" height="242" viewBox="0 0 1440 242" fill="none" xmlns="http://www.w3.org/2000/svg">
<g clip-path="url(#clip0_3018_422)">
<path fill-rule="evenodd" clip-rule="evenodd" d="M174.847 24.2505C225.906 24.2505 251.426 18.1833 276.936 12.1185C302.205 6.11095 327.465 0.105673 377.527 0.00137957V3.67935e-05L377.624 0.00119646C378.032 0.000403004 378.443 6.27593e-06 378.855 6.27593e-06C429.914 6.27593e-06 455.434 6.06714 480.944 12.132C505.718 18.0219 530.484 23.9097 578.623 24.2362C626.869 23.9092 651.671 18.0127 676.464 12.1185C700.972 6.29175 725.472 0.467139 772.602 0.0266786V3.67935e-05C773.021 0.00502642 773.439 0.010428 773.855 0.0162721C775.341 0.00548418 776.85 6.27593e-06 778.382 6.27593e-06C829.441 6.27593e-06 854.961 6.06714 880.471 12.132C904.861 17.9305 929.242 23.7268 975.925 24.217C1022.71 23.7263 1047.13 17.9213 1071.54 12.1185C1097.03 6.0581 1122.51 6.27593e-06 1173.46 6.27593e-06C1224.52 6.27593e-06 1250.04 6.06716 1275.55 12.132C1301.04 18.1924 1326.52 24.2505 1377.46 24.2505C1428.51 24.2505 1453.95 18.1829 1479.55 12.0798L1480 11.9717V139.261H1084.93L772.602 139.261L685.399 139.261L377.527 139.261H-22L-22 3.67935e-05C24.183 0.548544 48.4385 6.32178 72.7027 12.0971C98.2283 18.1726 123.764 24.2505 174.847 24.2505Z" fill="#F2F2F2"/>
<path fill-rule="evenodd" clip-rule="evenodd" d="M763.002 8.40981C764.426 8.39904 765.872 8.39356 767.339 8.39356C816.291 8.39356 840.757 14.4607 865.215 20.5256C888.598 26.3241 911.973 32.1205 956.729 32.6106C1001.59 32.12 1025 26.315 1048.4 20.512C1072.84 14.4516 1097.27 8.39355 1146.11 8.39355C1195.06 8.39355 1219.53 14.4607 1243.98 20.5256C1268.42 26.5859 1292.85 32.644 1341.7 32.644C1390.63 32.644 1415.03 26.5765 1439.57 20.4733L1440 20.3653V147.655L1061.23 147.655L761.801 147.655L383.031 147.655L1.73022e-05 147.655L0 8.39358C44.2767 8.94208 67.5309 14.7153 90.7936 20.4906C115.265 26.5662 139.747 32.644 188.721 32.644C237.673 32.644 262.139 26.5769 286.597 20.512C310.822 14.5047 335.039 8.49956 383.031 8.39493V8.39359L383.124 8.39474C383.517 8.39394 383.911 8.39355 384.308 8.39355C433.259 8.39355 457.726 14.4607 482.183 20.5256C505.935 26.4154 529.678 32.3031 575.829 32.6298C622.082 32.3024 645.859 26.4062 669.628 20.512C693.126 14.6852 716.615 8.86043 761.801 8.4202V8.39358C762.203 8.39855 762.603 8.40397 763.002 8.40981Z" fill="white"/>
</g>
<defs>
<clipPath id="clip0_3018_422">
<rect width="1440" height="242" fill="white"/>
</clipPath>
</defs>
</svg>
